{
  "accessors": [
    {
      "bufferView": 2,
      "componentType": 5126,
      "count": 65532,
      "max": [
        14.753621101379395,
        20.710506439208984,
        62.80491256713867
      ],
      "min": [
        -18.616455078125,
        -15.881220817565918,
        6.600000051548705e-05
      ],
      "type": "VEC3"
    },
    {
      "bufferView": 2,
      "byteOffset": 786384,
      "componentType": 5126,
      "count": 65532,
      "max": [
        0.9999960660934448,
        0.9999815821647644,
        0.9999918341636658
      ],
      "min": [
        -0.999994158744812,
        -0.9999990463256836,
        -1.0
      ],
      "type": "VEC3"
    },
    {
      "bufferView": 1,
      "componentType": 5126,
      "count": 65532,
      "max": [
        0.0,
        87.08293914794922
      ],
      "min": [
        -148.75201416015625,
        0.0
      ],
      "type": "VEC2"
    },
    {
      "bufferView": 0,
      "componentType": 5125,
      "count": 360489,
      "type": "SCALAR"
    },
    {
      "bufferView": 2,
      "byteOffset": 1572768,
      "componentType": 5126,
      "count": 30782,
      "max": [
        14.588537216186523,
        20.68219566345215,
        62.745445251464844
      ],
      "min": [
        -18.609424591064453,
        -15.881220817565918,
        6.600000051548705e-05
      ],
      "type": "VEC3"
    },
    {
      "bufferView": 2,
      "byteOffset": 1942152,
      "componentType": 5126,
      "count": 30782,
      "max": [
        0.9999926686286926,
        0.9999971985816956,
        0.9999337792396545
      ],
      "min": [
        -0.9999968409538269,
        -0.9999992847442627,
        -1.0
      ],
      "type": "VEC3"
    },
    {
      "bufferView": 1,
      "byteOffset": 524256,
      "componentType": 5126,
      "count": 30782,
      "max": [
        0.0,
        87.02120971679688
      ],
      "min": [
        -147.35084533691406,
        0.0
      ],
      "type": "VEC2"
    },
    {
      "bufferView": 0,
      "byteOffset": 1441956,
      "componentType": 5125,
      "count": 149025,
      "type": "SCALAR"
    }
  ],
  "asset": {
    "extras": {
      "author": "20APRIL.DESIGN (https://sketchfab.com/20APRIL.DESIGN)",
      "license": "CC-BY-4.0 (http://creativecommons.org/licenses/by/4.0/)",
      "source": "https://sketchfab.com/3d-models/tooth-new-fd253ae5a37c4b26a52b21f458360dc8",
      "title": "Tooth New"
    },
    "generator": "Sketchfab-12.96.0",
    "version": "2.0"
  },
  "bufferViews": [
    {
      "buffer": 0,
      "byteLength": 2038056,
      "name": "floatBufferViews",
      "target": 34963
    },
    {
      "buffer": 0,
      "byteLength": 770512,
      "byteOffset": 2038056,
      "byteStride": 8,
      "name": "floatBufferViews",
      "target": 34962
    },
    {
      "buffer": 0,
      "byteLength": 2311536,
      "byteOffset": 2808568,
      "byteStride": 12,
      "name": "floatBufferViews",
      "target": 34962
    }
  ],
  "buffers": [
    {
      "byteLength": 5120104,
      "uri": "scene.bin"
    }
  ],
  "extensionsRequired": [
    "KHR_materials_pbrSpecularGlossiness"
  ],
  "extensionsUsed": [
    "KHR_materials_pbrSpecularGlossiness"
  ],
  "materials": [
    {
      "doubleSided": true,
      "extensions": {
        "KHR_materials_pbrSpecularGlossiness": {
          "diffuseFactor": [
            1.0,
            1.0,
            1.0,
            1.0
          ],
          "glossinessFactor": 0.7238117297119381,
          "specularFactor": [
            0.37638209945020784,
            0.37638209945020784,
            0.37638209945020784
          ]
        }
      },
      "name": "wire_134006006"
    }
  ],
  "meshes": [
    {
      "name": "Object_0",
      "primitives": [
        {
          "attributes": {
            "NORMAL": 1,
            "POSITION": 0,
            "TEXCOORD_0": 2
          },
          "indices": 3,
          "material": 0,
          "mode": 4
        }
      ]
    },
    {
      "name": "Object_1",
      "primitives": [
        {
          "attributes": {
            "NORMAL": 5,
            "POSITION": 4,
            "TEXCOORD_0": 6
          },
          "indices": 7,
          "material": 0,
          "mode": 4
        }
      ]
    }
  ],
  "nodes": [
    {
      "children": [
        1
      ],
      "matrix": [
        0.02375268004834652,
        8.481487099670276e-34,
        -3.8197222141622726e-18,
        0.0,
        -3.8197222141622726e-18,
        5.2741544572457765e-18,
        -0.02375268004834652,
        0.0,
        0.0,
        0.02375268004834652,
        5.2741544572457765e-18,
        0.0,
        0.0,
        0.0,
        0.0,
        1.0
      ],
      "name": "Sketchfab_model"
    },
    {
      "children": [
        2,
        3
      ],
      "name": "tooth new.obj.cleaner.materialmerger.gles"
    },
    {
      "mesh": 0,
      "name": "Object_2"
    },
    {
      "mesh": 1,
      "name": "Object_3"
    }
  ],
  "scene": 0,
  "scenes": [
    {
      "name": "Sketchfab_Scene",
      "nodes": [
        0
      ]
    }
  ]
}
